<?xml version="1.0" encoding="UTF-8" standalone="no"?>
<!-- Created with Inkscape (http://www.inkscape.org/) -->

<svg
   width="512"
   height="512"
   viewBox="0 0 135.46666 135.46667"
   version="1.1"
   id="svg5"
   inkscape:version="1.2 (1:1.2.1+202207142221+cd75a1ee6d)"
   sodipodi:docname="cube.1.svg"
   inkscape:export-filename="cube.1.png"
   inkscape:export-xdpi="96"
   inkscape:export-ydpi="96"
   xml:space="preserve"
   xmlns:inkscape="http://www.inkscape.org/namespaces/inkscape"
   xmlns:sodipodi="http://sodipodi.sourceforge.net/DTD/sodipodi-0.dtd"
   xmlns="http://www.w3.org/2000/svg"
   xmlns:svg="http://www.w3.org/2000/svg"><sodipodi:namedview
     id="namedview7"
     pagecolor="#ffffff"
     bordercolor="#666666"
     borderopacity="1.0"
     inkscape:showpageshadow="2"
     inkscape:pageopacity="0.0"
     inkscape:pagecheckerboard="true"
     inkscape:deskcolor="#d1d1d1"
     inkscape:document-units="px"
     showgrid="false"
     inkscape:zoom="0.5946522"
     inkscape:cx="736.565"
     inkscape:cy="196.75367"
     inkscape:window-width="1472"
     inkscape:window-height="815"
     inkscape:window-x="32"
     inkscape:window-y="64"
     inkscape:window-maximized="0"
     inkscape:current-layer="layer1" /><defs
     id="defs2"><inkscape:path-effect
       effect="perspective-envelope"
       up_left_point="42.195356,-240.92869"
       up_right_point="284.71815,-100.90638"
       down_left_point="42.195357,39.112354"
       down_right_point="284.71814,179.13467"
       id="path-effect631"
       is_visible="true"
       lpeversion="1"
       deform_type="perspective"
       horizontal_mirror="false"
       vertical_mirror="false"
       overflow_perspective="false" /><inkscape:path-effect
       effect="perspective-envelope"
       up_left_point="30.464067,-1.8611033"
       up_right_point="340.14993,-180.66053"
       down_left_point="30.464069,355.73314"
       down_right_point="340.14993,176.93376"
       id="path-effect443"
       is_visible="true"
       lpeversion="1"
       deform_type="perspective"
       horizontal_mirror="false"
       vertical_mirror="false"
       overflow_perspective="false" /></defs><g
     inkscape:label="Layer 1"
     inkscape:groupmode="layer"
     id="layer1"><circle
       style="fill:#24273a;stroke-width:0"
       id="path228"
       cx="67.73333"
       cy="67.73333"
       r="67.73333" /><g
       id="g209"
       transform="matrix(1.4658674,0,0,1.4658674,-55.917725,-215.87463)"><path
         id="path167"
         style="opacity:1;fill:#7dc4e4;stroke-width:0"
         inkscape:transform-center-x="1.0627225e-06"
         inkscape:transform-center-y="-2.4374719e-06"
         d="m 84.353508,193.47444 -35.014401,20.2153 35.014401,20.21582 35.014402,-20.21582 z"
         transform="translate(-1.7796547e-7,-40.431065)" /><path
         id="path226"
         style="opacity:1;fill:#8aadf4;stroke-width:0"
         inkscape:transform-center-x="1.0627225e-06"
         inkscape:transform-center-y="-2.4374719e-06"
         d="m 84.353579,153.04314 -35.014401,20.21582 v 40.43113 l 35.014401,-20.21582 z"
         transform="translate(35.014329,20.215532)" /><path
         id="path231"
         style="opacity:1;fill:#b7bdf8;stroke-width:0"
         inkscape:transform-center-y="-4.4374719e-06"
         d="m 49.339107,173.25867 35.014401,20.21582 v 40.43113 L 49.339107,213.6898 Z" /></g><g
       id="g340"
       transform="matrix(0.1657372,0,0,0.1657372,62.684303,68.041779)"
       inkscape:path-effect="#path-effect443"><path
         style="fill:none;stroke-width:0"
         id="rect290"
         width="135.46666"
         height="135.46666"
         x="128.70677"
         y="19.919447"
         d="M 30.464067,-1.8611033 340.14993,-180.66053 l 0,357.59429 -309.685861,178.79938 z"
         sodipodi:type="rect" /><g
         inkscape:label="Layer 1"
         id="layer1-5"
         transform="translate(127.08146,18.294135)"><path
           style="fill:#cad3f5;stroke-width:0"
           id="rect108"
           width="62.919674"
           height="15.729918"
           x="30.286659"
           y="2.5830667"
           transform="rotate(45)"
           ry="7.8649588"
           d="M -15.767794,44.81236 69.313234,22.014448 c 7.855814,-2.105007 17.115355,7.154533 20.761301,20.761301 3.645947,13.606768 0.256775,26.255598 -7.59904,28.360605 L -2.6055327,93.934264 C -10.461347,96.039271 -19.720887,86.779731 -23.366833,73.172964 -27.01278,59.566197 -23.623609,46.917367 -15.767794,44.81236 Z"
           sodipodi:type="rect" /><path
           style="fill:#cad3f5;stroke-width:0"
           id="rect218"
           width="62.919674"
           height="15.729918"
           x="-65.502739"
           y="-93.206329"
           transform="matrix(0.70710678,-0.70710678,-0.70710678,-0.70710678,0,0)"
           ry="7.8649588"
           d="m -190.14147,-129.56131 147.365724,39.486783 c 13.606768,3.645947 22.866308,12.905487 20.761301,20.761302 -2.105007,7.855814 -14.753837,11.244986 -28.360605,7.599039 l -147.36572,-39.486784 c -13.60677,-3.64595 -22.86631,-12.90549 -20.7613,-20.7613 2.105,-7.85582 14.75383,-11.24499 28.3606,-7.59904 z"
           sodipodi:type="rect" /><path
           style="fill:#cad3f5;stroke-width:0"
           id="rect169"
           width="62.919674"
           height="15.729918"
           x="64.08033"
           y="-112.22426"
           transform="scale(1,-1)"
           ry="7.8649588"
           d="m 64.138778,-178.98142 107.878952,62.28469 c 9.96082,5.75096 17.97982,19.640327 17.97982,31.142089 0,11.501761 -8.019,16.131473 -17.97982,10.380519 L 64.138778,-137.45882 c -9.960822,-5.75096 -17.979823,-19.64032 -17.979823,-31.14209 0,-11.50176 8.019001,-16.13147 17.979823,-10.38051 z"
           sodipodi:type="rect" /></g></g><g
       id="g592"
       transform="matrix(0.21163565,0,0,0.21163565,7.4768217,89.088713)"
       inkscape:path-effect="#path-effect631"><path
         style="fill:none;stroke-width:0"
         id="rect461"
         width="135.46666"
         height="135.46666"
         x="74.646812"
         y="-121.07117"
         d="m 42.195356,-240.92869 242.522794,140.02231 -10e-6,280.04105 L 42.195357,39.112354 Z"
         sodipodi:type="rect" /><g
         id="g1057"
         transform="translate(74.646811,-67.184409)"><g
           id="g1027"><circle
             style="fill:#494d64;stroke-width:0"
             id="path108"
             cx="12.170835"
             cy="52.475697"
             r="3.7041664" /><circle
             style="fill:#ed8796;stroke-width:0"
             id="circle164"
             cx="28.045834"
             cy="52.475693"
             r="3.7041664" /><circle
             style="fill:#a6da95;stroke-width:0"
             id="circle220"
             cx="43.92083"
             cy="52.475693"
             r="3.7041664" /><circle
             style="fill:#eed49f;stroke-width:0"
             id="circle222"
             cx="59.795834"
             cy="52.475693"
             r="3.7041664" /><circle
             style="fill:#8aadf4;stroke-width:0"
             id="circle224"
             cx="75.67083"
             cy="52.475693"
             r="3.7041664" /><circle
             style="fill:#f5bde6;stroke-width:0"
             id="circle226"
             cx="91.545837"
             cy="52.475693"
             r="3.7041664" /><circle
             style="fill:#91d7e3;stroke-width:0"
             id="circle228"
             cx="107.42083"
             cy="52.475697"
             r="3.7041664" /><circle
             style="fill:#cad3f5;stroke-width:0"
             id="circle230"
             cx="123.29583"
             cy="52.475693"
             r="3.7041664" /></g><g
           id="g1037"><circle
             style="fill:#535a74;fill-opacity:1;stroke-width:0"
             id="circle286"
             cx="12.170835"
             cy="69.408943"
             r="3.7041664" /><circle
             style="fill:#f29ca9;fill-opacity:1;stroke-width:0"
             id="circle288"
             cx="28.045834"
             cy="69.408936"
             r="3.7041664" /><circle
             style="fill:#b6e0a9;fill-opacity:1;stroke-width:0"
             id="circle290"
             cx="43.92083"
             cy="69.408936"
             r="3.7041664" /><circle
             style="fill:#f3deb4;fill-opacity:1;stroke-width:0"
             id="circle292"
             cx="59.795834"
             cy="69.408936"
             r="3.7041664" /><circle
             style="fill:#a2bff6;fill-opacity:1;stroke-width:0"
             id="circle294"
             cx="75.67083"
             cy="69.408936"
             r="3.7041664" /><circle
             style="fill:#fad1f0;fill-opacity:1;stroke-width:0"
             id="circle296"
             cx="91.545837"
             cy="69.408936"
             r="3.7041664" /><circle
             style="fill:#a6e0e8;fill-opacity:1;stroke-width:0"
             id="circle298"
             cx="107.42083"
             cy="69.408943"
             r="3.7041664" /><circle
             style="fill:#e0e7fa;fill-opacity:1;stroke-width:0"
             id="circle300"
             cx="123.29583"
             cy="69.408936"
             r="3.7041664" /></g></g></g></g></svg>
